<svg width="2585" height="1189" viewBox="0 0 2585 1189" fill="none" xmlns="http://www.w3.org/2000/svg">
<path d="M2234.85 1188.26C2194.7 1186.38 2152.56 1176.17 2114.85 1159.21C2107.42 1155.86 2100.9 1152.8 2100.35 1152.4C2099.8 1152 2095.97 1149.96 2091.85 1147.86C2081.05 1142.36 2055.12 1125.03 2042.53 1114.88C2030.61 1105.28 2010.99 1086.31 2000.13 1073.89C1959.99 1028 1931.14 965.812 1922.44 906.392C1918.45 879.141 1917.4 846.738 1919.81 825.892C1922.6 801.915 1926.14 782.244 1930.08 768.892C1938.69 739.678 1944.92 723.766 1956.28 701.892C1963.02 688.924 1973.64 671.13 1978 665.507C1979.02 664.196 1979.85 662.797 1979.85 662.399C1979.85 662.001 1968.94 661.6 1955.6 661.507C1942.26 661.414 1926.17 661.136 1919.85 660.889C1913.52 660.641 1889 660.194 1865.35 659.896C1841.7 659.598 1798.27 658.926 1768.85 658.403C1739.42 657.879 1700.72 657.218 1682.85 656.934C1664.97 656.65 1633.75 656.122 1613.46 655.762L1576.58 655.106L1577.34 608.999C1577.76 583.64 1578.38 551.867 1578.72 538.392L1579.35 513.892L1610.85 514.181C1628.17 514.339 1647.75 514.669 1654.35 514.913C1660.95 515.157 1682.32 515.59 1701.85 515.876C1721.37 516.162 1745.67 516.628 1755.85 516.911C1773.57 517.405 1849.42 518.694 1990.85 520.905C2008.72 521.184 2033.92 521.631 2046.85 521.898C2059.77 522.165 2089.7 522.658 2113.35 522.994C2137 523.33 2157.92 523.753 2159.85 523.935C2169.5 524.845 2213.53 524.446 2222.76 523.364C2232.76 522.192 2280.76 522.468 2286.85 523.731C2288.22 524.017 2292.72 524.753 2296.85 525.368C2300.97 525.982 2305.92 526.725 2307.85 527.018C2326.96 529.925 2359.14 539.156 2377.76 547.07C2420.53 565.25 2452.05 585.959 2483.22 616.36C2511.28 643.724 2531.79 671.338 2547.87 703.392C2566.6 740.725 2576.47 772.507 2582.5 814.892C2584.93 832.019 2584.98 875.775 2582.59 894.622C2579.38 919.825 2572.26 949.442 2564.32 970.588C2539.06 1037.84 2494.98 1093.63 2435.85 1133.17C2417.11 1145.7 2389.52 1159.76 2368.85 1167.32C2362.52 1169.63 2356.36 1171.92 2355.15 1172.41C2351.48 1173.9 2326.95 1180.22 2316.77 1182.31C2291.56 1187.48 2262.81 1189.57 2234.85 1188.26ZM2278.85 1161.41C2314.11 1157.94 2346.29 1149.56 2375.85 1136.14C2378.32 1135.02 2383.13 1132.85 2386.53 1131.32C2403.14 1123.84 2429.05 1106.81 2450.3 1089.39C2454.49 1085.96 2479.63 1060.81 2483.78 1055.89C2491.43 1046.85 2504.99 1028.2 2511.42 1017.89C2520.68 1003.07 2532.91 978.228 2537.27 965.392C2539.23 959.617 2541.27 954.142 2541.8 953.226C2543.03 951.087 2549.01 927.918 2551.75 914.652C2558.2 883.416 2559.12 846.155 2554.28 811.892C2549.55 778.344 2535.87 738.341 2518.4 706.892C2514.03 699.036 2497.27 673.501 2493.46 668.892C2481.67 654.637 2477.02 649.463 2467.4 639.868C2419.18 591.765 2357.98 562.01 2288.35 552.812C2268.42 550.179 2233.1 550.375 2211.85 553.237C2174.47 558.27 2144.06 567.855 2110.85 585.069C2093.76 593.928 2071.62 608.344 2058.62 619.072C2040.55 633.993 2015.9 659.649 2006.84 672.956C2004.99 675.671 2003.21 678.117 2002.88 678.392C2002.55 678.667 1999.21 683.568 1995.47 689.284C1987.59 701.324 1971.13 732.907 1967.79 742.392C1966.54 745.967 1965.18 749.342 1964.78 749.892C1964.38 750.442 1963.3 753.367 1962.39 756.392C1948.97 800.662 1945.09 826.646 1946.15 865.336C1947.41 911.29 1956.44 948.686 1976.24 989.861C2001.31 1041.99 2039.62 1084.49 2090.85 1116.99C2114.05 1131.71 2157.97 1150.06 2178.85 1153.75C2180.22 1153.99 2185.17 1155.09 2189.85 1156.19C2198.69 1158.28 2209.05 1159.92 2221.85 1161.27C2233.35 1162.48 2267.1 1162.56 2278.85 1161.41ZM2228.66 1146.33C2208.72 1144.58 2184.14 1140.01 2168.85 1135.21C2159.18 1132.17 2145.96 1127.53 2142.44 1125.94C2140.74 1125.17 2135.97 1123.1 2131.85 1121.34C2110.95 1112.41 2085.28 1096.37 2065.21 1079.71C2055.12 1071.33 2041.1 1057.73 2041.9 1057.09C2042.15 1056.89 2063.5 1037.19 2089.35 1013.29C2115.2 989.404 2144.22 962.659 2153.85 953.86C2163.47 945.062 2173.82 935.583 2176.85 932.795C2201.9 909.711 2211.08 901.221 2215.67 896.9C2218.59 894.146 2221.36 891.757 2221.82 891.592C2222.28 891.426 2225.24 892.948 2228.41 894.972C2235.81 899.709 2242.6 902.056 2251.39 902.919L2258.44 903.61L2261.14 915.751C2262.62 922.428 2265.82 936.892 2268.24 947.892C2270.66 958.892 2273.55 971.492 2274.67 975.892C2275.78 980.292 2277.44 987.717 2278.36 992.392C2279.27 997.067 2281.36 1006.49 2282.98 1013.33C2284.61 1020.18 2287.31 1032.1 2288.97 1039.83C2290.64 1047.57 2292.19 1054.57 2292.41 1055.39C2292.64 1056.22 2294.82 1065.89 2297.24 1076.89C2299.67 1087.89 2303.24 1103.87 2305.17 1112.39C2308.92 1128.95 2311 1138.89 2310.97 1140.13C2310.94 1141.23 2298.14 1143.54 2277.85 1146.09C2271.24 1146.93 2237.34 1147.09 2228.66 1146.33ZM2246.35 1103.55L2250.35 1102.82L2250.13 1094.86C2249.66 1077.47 2246.46 1014.41 2245.33 1000.39C2245.08 997.367 2244.42 984.317 2243.85 971.392C2243.28 958.467 2242.57 945.961 2242.26 943.6C2241.66 938.873 2237.5 933.298 2232.75 930.841C2229.46 929.142 2221.93 928.963 2216.56 930.456C2212.5 931.583 2214.31 929.246 2142.85 1025.51C2132.12 1039.96 2121.66 1054.04 2119.6 1056.81C2117.54 1059.57 2115.86 1062.3 2115.88 1062.87C2115.9 1063.43 2119.39 1066.42 2123.63 1069.51C2151.27 1089.62 2180.61 1101.41 2211.35 1104.76C2216.59 1105.33 2241.23 1104.48 2246.35 1103.55ZM2322.11 1127.68C2319.43 1115.57 2312.2 1083.21 2307.41 1061.89C2305.43 1053.09 2302.27 1039.37 2300.39 1031.39C2298.51 1023.42 2296.22 1013.07 2295.31 1008.39C2294.4 1003.72 2292.83 996.742 2291.81 992.892C2290.79 989.042 2288.55 979.142 2286.84 970.892C2285.12 962.642 2283.3 954.542 2282.78 952.892C2282.27 951.242 2280.05 941.567 2277.86 931.392C2275.66 921.217 2273.46 911.317 2272.96 909.392C2270.49 899.948 2270.23 900.732 2276.96 897.335C2284.69 893.433 2292.23 886.446 2296.1 879.584C2298.08 876.085 2299.58 874.46 2300.51 874.815C2301.28 875.112 2307.19 876.989 2313.63 878.986C2320.08 880.984 2330.75 884.328 2337.35 886.417C2343.95 888.506 2352.72 891.196 2356.85 892.396C2360.97 893.596 2366.6 895.381 2369.35 896.365C2372.1 897.348 2379.97 899.816 2386.85 901.849C2393.72 903.882 2400.25 905.927 2401.35 906.393C2402.45 906.858 2408.75 908.868 2415.35 910.858C2421.95 912.848 2428.25 914.875 2429.35 915.364C2430.45 915.853 2436.3 917.677 2442.35 919.418C2448.4 921.159 2457.17 923.854 2461.85 925.406C2466.52 926.958 2479.35 931.002 2490.35 934.392C2524.17 944.815 2527.39 946.02 2527 948.08C2526.21 952.275 2516.27 976.65 2511.58 985.892C2496.57 1015.51 2480.46 1037.75 2456.85 1061.45C2434.25 1084.15 2413.56 1099.33 2383.62 1115.19C2368.97 1122.95 2340.33 1133.94 2327.31 1136.79L2324.27 1137.46L2322.11 1127.68ZM2380.67 1079.44C2418.96 1062.74 2449.53 1034.46 2465.35 1001.08C2471.82 987.443 2471.86 988.335 2464.6 984.643C2461.16 982.895 2452.05 978.15 2444.35 974.099C2426.58 964.752 2408.4 955.231 2394.35 947.918C2388.3 944.77 2370.92 935.698 2355.74 927.759C2332.81 915.772 2327.37 913.31 2323.67 913.235C2315.5 913.071 2309.12 918.382 2306.37 927.621C2305.53 930.445 2304.85 933.344 2304.85 934.064C2304.85 934.784 2308.96 945.165 2313.98 957.133C2319.01 969.1 2324.14 981.367 2325.39 984.392C2326.63 987.417 2330.12 995.742 2333.13 1002.89C2348.68 1039.76 2358.43 1063.02 2362.57 1073.14C2365.1 1079.33 2367.66 1084.39 2368.26 1084.38C2368.86 1084.37 2374.44 1082.15 2380.67 1079.44ZM2023.93 1037.14C2009.63 1018.95 2002.16 1007.26 1992.28 987.56C1982.11 967.29 1974.63 947.127 1969.38 925.828C1963.63 902.505 1961.93 889.671 1961.19 863.892C1960.46 838.423 1962.76 812.536 1967.36 794.392C1967.57 793.567 1968.83 788.488 1970.17 783.105C1971.5 777.723 1972.77 773.134 1973 772.908C1973.23 772.681 1981.27 774.972 1990.88 777.998C2000.49 781.025 2013.52 785.063 2019.85 786.973C2026.17 788.883 2032.25 790.849 2033.35 791.341C2034.45 791.834 2038.72 793.196 2042.85 794.368C2049.6 796.288 2073.16 803.641 2097.35 811.377C2102.3 812.96 2115.35 817.009 2126.35 820.373C2137.35 823.737 2149.5 827.568 2153.35 828.885C2157.2 830.202 2165.07 832.68 2170.85 834.391C2176.62 836.101 2186.98 839.318 2193.86 841.539L2206.38 845.577L2206.02 852.734C2205.61 860.891 2207.72 870.579 2211.32 877.076L2213.63 881.259L2208.49 886.102C2205.66 888.766 2194.35 899.223 2183.35 909.339C2172.35 919.456 2157.5 933.208 2150.35 939.9C2143.2 946.593 2128.57 960.093 2117.85 969.901C2107.12 979.709 2093.62 992.082 2087.85 997.397C2082.07 1002.71 2071.05 1012.85 2063.35 1019.93C2055.65 1027.01 2045.87 1036.09 2041.61 1040.1C2037.35 1044.11 2033.45 1047.39 2032.93 1047.39C2032.41 1047.39 2028.36 1042.78 2023.93 1037.14ZM2070.85 951.599C2087.62 940.9 2105.62 929.442 2110.85 926.136C2116.07 922.83 2122.6 918.679 2125.35 916.912C2128.1 915.145 2133.78 911.492 2137.97 908.795C2142.17 906.098 2152.38 899.532 2160.67 894.204L2175.73 884.516L2177.29 879.272C2180.5 868.477 2178.31 861.023 2170.53 856.254C2166.8 853.96 2163.73 853.394 2141.85 850.952C2128.37 849.449 2116.22 848.061 2114.85 847.87C2113.47 847.678 2110.1 847.209 2107.35 846.828C2104.6 846.447 2101.45 845.967 2100.35 845.762C2099.25 845.556 2081.47 843.342 2060.85 840.841C2040.22 838.34 2020.03 835.851 2015.96 835.31C2011.9 834.769 2008.42 834.484 2008.23 834.677C2008.04 834.87 2007.08 838.597 2006.11 842.96C2003.57 854.374 2003.63 888.354 2006.22 900.392C2009.13 913.952 2014.6 929.943 2020.79 942.944C2027.8 957.688 2037.4 972.769 2039.13 971.761C2039.8 971.371 2054.07 962.298 2070.85 951.599ZM2526.35 931.9C2524.15 931.167 2515.82 928.541 2507.85 926.065C2485.88 919.245 2463.12 912.149 2445.35 906.58C2424.75 900.123 2402.98 893.327 2385.35 887.852C2365.5 881.689 2339.11 873.443 2319.71 867.347L2303.06 862.116L2303.58 856.372C2304.23 849.252 2302.62 842.179 2298.08 832.153L2294.58 824.414L2301.96 817.659C2306.03 813.943 2313.17 807.3 2317.85 802.897C2333.29 788.36 2375.93 749.067 2387.24 738.965C2393.35 733.506 2401.05 726.492 2404.35 723.38C2407.65 720.268 2419.35 709.447 2430.35 699.332C2441.35 689.218 2453.27 678.155 2456.85 674.746C2465.59 666.416 2468.84 663.964 2469.77 665.013C2488.4 686.059 2508.8 718.954 2519.3 744.892C2521.31 749.842 2523.36 754.792 2523.86 755.892C2528.61 766.273 2536.67 799.111 2539.56 819.831C2542.19 838.746 2541.89 878.467 2538.98 897.392C2536.64 912.591 2531.98 933.448 2530.95 933.313C2530.62 933.27 2528.55 932.634 2526.35 931.9ZM2501.98 862.112C2502.8 857.179 2503.35 846.293 2503.35 834.892C2503.35 818.736 2502.99 814.248 2501 804.906C2497.99 790.823 2492.24 774.742 2485.35 761.146C2479.68 749.932 2470.41 735.392 2468.93 735.392C2468.46 735.392 2465.44 737.118 2462.21 739.228C2452.19 745.785 2443.02 751.677 2423.85 763.873C2413.67 770.346 2402.65 777.381 2399.35 779.506C2396.05 781.631 2385.25 788.528 2375.35 794.832C2329.05 824.315 2332.11 822.096 2330.3 827.546C2326.7 838.376 2329.65 848.221 2337.53 851.725C2341.31 853.402 2358.46 855.779 2418.35 862.921C2434.3 864.824 2453.87 867.291 2461.85 868.405C2491.68 872.571 2498.25 873.143 2499.48 871.676C2500.1 870.936 2501.23 866.633 2501.98 862.112ZM2246.6 889.73C2247.29 889.453 2248.41 889.453 2249.1 889.73C2249.79 890.007 2249.22 890.234 2247.85 890.234C2246.47 890.234 2245.91 890.007 2246.6 889.73ZM2289.93 858.809C2289.98 857.644 2290.21 857.407 2290.53 858.205C2290.82 858.926 2290.78 859.789 2290.45 860.121C2290.12 860.453 2289.88 859.863 2289.93 858.809ZM2218.15 854.392C2218.15 851.367 2218.34 850.13 2218.56 851.642C2218.79 853.155 2218.79 855.63 2218.56 857.142C2218.34 858.655 2218.15 857.417 2218.15 854.392ZM2195.35 828.756C2187.65 826.289 2174.15 822.019 2165.35 819.267C2156.55 816.515 2142.37 812.076 2133.85 809.402C2118.44 804.569 2100.04 798.831 2071.35 789.918C2047.49 782.506 2021.74 774.425 2016.85 772.816C2014.37 772.002 2011.67 771.141 2010.85 770.904C2000.9 768.039 1978.24 761.018 1977.86 760.687C1976.88 759.811 1983.31 743.462 1990.38 728.892C2026.54 654.287 2093.75 598.771 2175.6 575.888C2180.14 574.619 2184.02 573.876 2184.24 574.237C2184.72 575.055 2187.88 588.585 2191.87 606.892C2193.54 614.592 2196.01 625.617 2197.35 631.392C2198.69 637.167 2200.94 647.067 2202.34 653.392C2203.75 659.717 2206.89 673.892 2209.33 684.892C2217.57 722.009 2221.8 740.844 2224.3 751.392C2226.28 759.785 2234.47 796.23 2236.57 806.009C2236.94 807.718 2236.14 808.557 2232.4 810.366C2226.44 813.254 2218.15 820.85 2213.32 827.862C2211.23 830.904 2209.48 833.358 2209.43 833.317C2209.38 833.276 2203.05 831.223 2195.35 828.756ZM2197.08 800.8C2201 798.264 2203.92 793.566 2205.72 786.861C2206.94 782.335 2209.21 788.455 2184.82 730.392C2181.93 723.517 2177.2 712.267 2174.32 705.392C2171.44 698.517 2166.97 687.942 2164.39 681.892C2161.81 675.842 2157.76 666.167 2155.37 660.392C2145.76 637.096 2143.9 632.892 2143.14 632.892C2141.05 632.892 2122.23 641.398 2113.24 646.408C2094.71 656.729 2074.03 674.214 2062.28 689.475C2056.22 697.358 2047.49 711.919 2044.46 719.202C2040.19 729.468 2040.09 728.848 2046.56 732.148C2049.74 733.77 2056.17 737.117 2060.85 739.586C2065.52 742.056 2076.55 747.816 2085.35 752.388C2094.15 756.96 2116.42 768.669 2134.85 778.408C2176.95 800.662 2180.67 802.544 2184.35 803.46C2188.52 804.499 2192.7 803.626 2197.08 800.8ZM2279.25 827.142L2277.35 824.892L2279.6 826.797C2281.71 828.587 2282.3 829.392 2281.5 829.392C2281.31 829.392 2280.3 828.38 2279.25 827.142ZM2253.66 816.709C2254.38 816.42 2255.24 816.456 2255.58 816.788C2255.91 817.12 2255.32 817.356 2254.27 817.313C2253.1 817.265 2252.86 817.028 2253.66 816.709ZM2277.91 811.328C2271.02 807.189 2264.72 805.449 2255.35 805.105L2249.53 804.892L2246.21 790.392C2244.39 782.417 2241.31 768.692 2239.38 759.892C2237.44 751.092 2234.71 738.942 2233.31 732.892C2231.91 726.842 2229.68 716.942 2228.36 710.892C2225.77 699.077 2216.93 659.869 2216.3 657.392C2215.92 655.911 2211.37 635.475 2202.45 595.266C2199.94 583.922 2197.6 573.913 2197.26 573.024C2196.57 571.219 2197.46 570.768 2203.35 569.945C2205.55 569.638 2212.3 568.697 2218.35 567.854C2231.69 565.996 2268.37 565.694 2281.35 567.335C2292.32 568.723 2314.5 572.747 2323.06 574.901C2337.39 578.507 2363.31 588.051 2377.35 594.89C2406.95 609.313 2429.47 624.924 2453.18 647.469L2460.09 654.046L2427.77 683.969C2409.98 700.427 2389.34 719.478 2381.89 726.305C2358.5 747.746 2346.53 758.82 2344.4 760.981C2343.27 762.13 2339.87 765.237 2336.85 767.887C2333.82 770.536 2325.72 777.957 2318.85 784.377C2296.4 805.34 2285.36 815.381 2284.85 815.29C2284.57 815.241 2281.45 813.458 2277.91 811.328ZM2289.6 781.06C2294.03 779.454 2297.24 776.237 2305.91 764.714C2309.97 759.312 2318.93 747.64 2325.82 738.777C2332.71 729.914 2340.82 719.418 2343.85 715.453C2349.09 708.59 2366.99 685.428 2383.64 663.964C2387.88 658.503 2391.92 653.243 2392.61 652.274C2393.73 650.716 2392.88 649.651 2385.24 643.056C2359.02 620.409 2320.93 606.714 2281.85 605.88C2274.97 605.733 2267.14 605.839 2264.45 606.115L2259.56 606.617L2260.26 634.254C2260.64 649.455 2261.15 664.592 2261.38 667.892C2261.62 671.192 2262.25 686.942 2262.8 702.892C2265.31 776.387 2264.84 769.563 2267.56 772.806C2271.02 776.943 2274.49 779.498 2278.7 781.001C2283.14 782.586 2285.36 782.598 2289.6 781.06ZM1972.85 650.892C1972.85 647.496 1972.73 647.388 1968.85 647.267C1966.65 647.198 1964.06 647.086 1963.1 647.017C1961.77 646.922 1961.27 647.795 1961.04 650.642L1960.73 654.392H1966.79H1972.85V650.892ZM1904.85 649.892V646.392H1898.85H1892.85V649.892V653.392H1898.85H1904.85V649.892ZM1937.85 649.892V646.392H1932.35H1926.85V649.892V653.392H1932.35H1937.85V649.892ZM1839.85 648.623V644.854L1834.35 644.717L1828.85 644.58V648.486V652.392H1834.35H1839.85V648.623ZM1871.85 648.892V645.392H1866.35H1860.85V648.892V652.392H1866.35H1871.85V648.892ZM1771.85 647.635V643.878L1766.35 643.839L1760.85 643.8V647.596V651.392H1766.35H1771.85V647.635ZM1805.85 647.892V644.392H1799.85H1793.85V647.892V651.392H1799.85H1805.85V647.892ZM1738.86 649.142C1738.87 648.455 1739.15 646.88 1739.48 645.642C1740.06 643.488 1739.82 643.392 1733.96 643.392H1727.85V646.892V650.392H1733.35C1737.08 650.392 1738.85 649.989 1738.86 649.142ZM1707.6 645.89L1707.85 642.392H1701.85H1695.85V645.892V649.392H1701.6H1707.35L1707.6 645.894V645.89ZM1639.85 644.892V641.392H1634.1H1628.35L1628.52 644.642C1628.61 646.43 1628.73 648.005 1628.77 648.142C1628.81 648.28 1631.32 648.392 1634.35 648.392H1639.85V644.892ZM1673.85 644.892V641.392H1667.95H1662.05V644.892V648.392H1667.95H1673.85V644.892ZM1606.85 645.474C1606.85 644.419 1607.12 642.844 1607.46 641.974C1607.97 640.638 1607.11 640.392 1601.96 640.392H1595.85V643.892V647.392H1601.35C1606.1 647.392 1606.85 647.132 1606.85 645.474ZM2138.85 535.191V531.392H2133.46H2128.07L2127.66 534.85C2127.22 538.637 2127.59 538.843 2135.1 538.941C2138.78 538.989 2138.85 538.923 2138.85 535.191ZM2107.66 534.712L2107.35 531.032L2101.1 530.692L2094.85 530.352V534.372V538.392H2101.41H2107.97L2107.66 534.712ZM2039.85 533.392V529.392H2033.85H2027.85V532.842V536.292L2033.6 536.653C2036.76 536.852 2039.46 537.099 2039.6 537.203C2039.74 537.307 2039.85 535.592 2039.85 533.392ZM2072.85 533.984V530.577L2067.35 530.234L2061.85 529.892V533.642V537.392H2067.35H2072.85V533.984H2072.85ZM1974.85 532.142V528.392H1968.85H1962.85V532.142V535.892H1968.85H1974.85V532.142ZM2006.85 532.892C2006.85 529.496 2006.73 529.388 2002.85 529.267C2000.65 529.198 1998.11 529.086 1997.2 529.017C1996.01 528.926 1995.46 529.918 1995.18 532.642L1994.79 536.392H2000.82H2006.85V532.892ZM1940.65 532.063C1940.65 528.879 1940.37 528.576 1937 528.018C1929.48 526.774 1928.85 527.017 1928.85 531.157V534.921L1934.75 535.213L1940.65 535.506V532.063ZM2170.35 531.939C2170.9 531.706 2168.76 531.557 2165.6 531.608C2160.83 531.685 2159.85 531.998 2159.85 533.449C2159.85 535.066 2160.2 535.09 2164.6 533.78C2167.21 533.001 2169.8 532.173 2170.35 531.939ZM1906.85 530.984V527.577L1901.43 527.234L1896.01 526.892L1895.62 530.173C1895.41 531.977 1895.45 533.665 1895.71 533.923C1895.97 534.181 1898.58 534.392 1901.52 534.392H1906.85V530.984H1906.85ZM1841.85 529.892C1841.85 526.955 1841.49 526.378 1839.6 526.305C1838.36 526.257 1835.93 526.071 1834.19 525.891C1831.65 525.627 1830.92 525.986 1830.46 527.727C1829.05 532.968 1829.45 533.392 1835.85 533.392H1841.85V529.892ZM1873.85 529.892V526.392H1868.35H1862.85V529.892V533.392H1868.35H1873.85V529.892ZM1773.85 528.381V524.392H1768.35H1762.85V527.829C1762.85 530.975 1763.12 531.292 1766.1 531.579C1767.89 531.751 1770.36 532 1771.6 532.131C1773.6 532.343 1773.85 531.921 1773.85 528.381ZM1807.85 528.892V525.392H1801.85H1795.85V528.892V532.392H1801.85H1807.85V528.892ZM1709.85 527.223V523.392H1703.96H1698.07L1697.65 526.923C1697.43 528.865 1697.34 530.552 1697.46 530.673C1697.59 530.793 1700.42 530.928 1703.77 530.973L1709.85 531.054V527.223ZM1741.85 527.892V524.392H1735.85H1729.85V527.892V531.392H1735.85H1741.85V527.892ZM1675.84 526.642L1675.83 522.892L1670.34 522.811L1664.84 522.73V526.561V530.392H1670.34H1675.84L1675.83 526.642L1675.84 526.642ZM1609.04 525.861C1609.27 523.919 1609.24 522.119 1608.98 521.861C1608.72 521.603 1606.22 521.393 1603.43 521.393H1598.35L1598.07 525.392L1597.8 529.391H1603.21H1608.63L1609.04 525.86L1609.04 525.861ZM1641.85 525.984V522.577L1636.43 522.234L1631.01 521.892L1630.65 525.642L1630.3 529.392H1636.07H1641.85V525.984ZM139.907 1150.14C139.937 1149.45 156.952 1064.74 177.715 961.892L215.467 774.892L324.408 774.618C445.314 774.314 440.496 774.081 454.743 780.909C483.08 794.489 503.241 823.135 508.359 857.088C519.402 930.348 465.904 984.013 377.623 988.235L363.897 988.892L418.373 1069.67C448.334 1114.1 472.849 1150.66 472.849 1150.92C472.849 1151.18 454.286 1151.38 431.599 1151.36L390.349 1151.33L332.449 1063.64L274.548 975.946L276.255 969.419C277.194 965.829 280.025 955.129 282.545 945.642L287.128 928.392L335.739 928.382C362.474 928.382 388.145 927.938 392.785 927.404C412.571 925.13 428.62 911.589 435.473 891.389C438.172 883.436 437.993 866.022 435.134 858.221C432.549 851.167 427.852 844.242 423.595 841.206L420.349 838.892H346.855H273.361L242.093 993.892C224.895 1079.14 210.62 1149.45 210.369 1150.14C210.015 1151.11 201.994 1151.39 174.879 1151.39C147.49 1151.39 139.861 1151.12 139.907 1150.14ZM535.849 1150.63C535.849 1149.21 610.81 775.098 611.167 774.741C611.362 774.545 669.797 774.499 741.021 774.638L870.519 774.892L865.702 797.892C863.053 810.542 860.171 824.152 859.299 828.137L857.713 835.382L763.564 835.637L669.413 835.892L660.664 878.892C655.852 902.542 651.899 922.455 651.881 923.142C651.851 924.133 670.811 924.392 743.416 924.392C830.144 924.392 834.957 924.484 834.491 926.142C834.221 927.105 831.692 939.142 828.873 952.892C826.053 966.642 823.329 978.905 822.819 980.142L821.891 982.392H730.87C680.808 982.392 639.849 982.554 639.849 982.753C639.849 982.951 636.026 1003.09 631.355 1027.5C626.683 1051.92 622.858 1073.48 622.855 1075.42C622.855 1079.94 624.93 1082.86 630.165 1085.66L634.349 1087.89L720.448 1088.18L806.546 1088.47L800.715 1117.68C797.508 1133.75 794.644 1147.9 794.348 1149.14L793.81 1151.39H664.83C593.89 1151.39 535.849 1151.05 535.849 1150.63ZM867.849 1150.63C867.849 1149.21 942.81 775.098 943.167 774.741C943.362 774.545 1001.8 774.499 1073.02 774.638L1202.52 774.892L1197.7 797.892C1195.05 810.542 1192.17 824.152 1191.3 828.137L1189.71 835.382L1095.56 835.637L1001.41 835.892L992.664 878.892C987.852 902.542 983.899 922.455 983.881 923.142C983.851 924.133 1002.81 924.392 1075.42 924.392C1162.15 924.392 1166.96 924.484 1166.48 926.142C1166.2 927.105 1163.67 939.142 1160.86 952.892C1158.05 966.642 1155.33 978.905 1154.82 980.142L1153.89 982.392H1062.87C1012.81 982.392 971.849 982.596 971.849 982.845C971.849 983.094 968.024 1003.22 963.349 1027.57C958.674 1051.92 954.849 1073.44 954.849 1075.39C954.849 1079.94 956.924 1082.85 962.165 1085.66L966.349 1087.89L1052.45 1088.18L1138.55 1088.47L1132.72 1117.68C1129.51 1133.75 1126.64 1147.9 1126.35 1149.14L1125.81 1151.39H996.829C925.89 1151.39 867.849 1151.05 867.849 1150.63ZM1199.45 1148.65C1199.76 1147.13 1216.97 1062.42 1237.7 960.392L1275.39 774.892L1310.62 774.629C1332.73 774.464 1345.85 774.725 1345.85 775.33C1345.85 775.859 1333.44 836.953 1318.27 911.093C1303.1 985.232 1290.44 1048.38 1290.15 1051.41C1289.03 1062.92 1294.16 1075.37 1301.85 1079.85C1305.25 1081.83 1307.06 1081.9 1364.11 1082.18L1422.87 1082.47L1422.31 1084.68C1422.01 1085.9 1418.5 1101.29 1414.51 1118.89L1407.26 1150.89L1303.08 1151.15L1198.9 1151.4L1199.45 1148.65ZM1444.85 1150.33C1444.85 1149.72 1448.22 1134.36 1452.35 1116.19C1456.47 1098.03 1459.85 1082.99 1459.85 1082.78C1459.85 1082.57 1499.79 1082.38 1548.6 1082.36C1599.69 1082.34 1640.51 1081.92 1644.79 1081.36C1659.13 1079.5 1671.04 1071.37 1680.8 1056.77C1687.77 1046.35 1690.98 1035.96 1691.6 1021.77C1691.91 1014.66 1691.67 1009.38 1690.92 1007.11C1689.48 1002.75 1683.07 995.315 1678.07 992.206L1674.35 989.892L1619.35 989.318C1580.57 988.913 1562.73 988.372 1558.85 987.483C1555.82 986.79 1549.28 984.272 1544.3 981.886C1524 972.148 1506.95 949.892 1500.64 924.892C1497.43 912.15 1497.43 883.814 1500.66 868.788C1504.96 848.733 1511.15 834.146 1522.18 818.006C1535.85 798.014 1553.33 784.357 1574.35 777.257L1581.35 774.892L1684.1 774.615C1769.61 774.385 1786.85 774.563 1786.85 775.682C1786.85 777.775 1772.17 842.075 1771.41 843.302C1770.93 844.075 1746.88 844.392 1688.83 844.392C1592.62 844.392 1600.49 843.49 1588.19 855.924C1576.45 867.798 1569.93 885.227 1571.1 901.571C1571.99 914.073 1580.7 923.254 1593.07 924.74C1595.97 925.089 1620.08 925.378 1646.64 925.383C1686.73 925.393 1696.24 925.66 1702.58 926.971C1730.26 932.689 1753.07 952.367 1761.96 978.198C1767.7 994.887 1766.13 1027.11 1758.2 1055.39C1750.7 1082.15 1737.51 1104.83 1718.36 1123.89C1705.6 1136.59 1696.42 1142.55 1681.85 1147.6L1672.35 1150.89L1558.6 1151.17C1475.74 1151.37 1444.85 1151.14 1444.85 1150.33H1444.85ZM1184.85 738.642C1184.85 738.23 1194.97 687.565 1207.35 626.054C1219.72 564.543 1229.85 513.806 1229.85 513.304C1229.85 512.785 1238.39 512.392 1249.66 512.392H1269.47L1310.98 596.142L1352.49 679.892L1368.73 597.892C1377.66 552.792 1385.19 515.105 1385.47 514.142C1385.94 512.545 1387.87 512.392 1407.52 512.392H1429.06L1428.54 514.642C1428.25 515.88 1417.99 566.962 1405.73 628.159L1383.44 739.427L1359.64 739.159L1335.84 738.892L1297.74 660.892C1276.78 617.992 1259.52 582.773 1259.39 582.627C1259.26 582.481 1252.52 615.556 1244.42 656.127C1236.31 696.698 1229.23 732.03 1228.68 734.642L1227.68 739.392H1206.27C1194.49 739.392 1184.85 739.055 1184.85 738.642ZM973.349 674.687C966.199 674.574 935.824 674.006 905.849 673.424C800.38 671.378 748.976 670.445 711.349 669.897C690.449 669.592 648.824 668.919 618.849 668.401C588.874 667.883 546.574 667.218 524.849 666.922C503.124 666.626 475.674 666.162 463.849 665.89C401.732 664.463 373.839 664.293 365.849 665.292C345.654 667.817 310.308 667.174 289.051 663.896C271.703 661.221 248.909 656.464 241.366 653.944C237.506 652.655 230.524 650.411 225.849 648.959C200.719 641.151 166.433 623.756 141.349 606.089C65.0611 552.357 15.0476 469.543 2.32957 375.892C1.43357 369.292 0.453854 353.767 0.150854 341.392C-0.653146 308.464 1.66466 286.613 9.32566 254.892C23.9727 194.247 53.9806 140.952 98.2886 96.892C154.86 40.6376 229.462 6.54586 308.849 0.669358C333.728 -1.17234 371.103 0.909151 393.924 5.40715C425.111 11.5543 456.381 22.264 483.849 36.2074C522.552 55.8541 555.589 81.6198 585.414 115.418C608.645 141.745 632.568 182.557 646.652 219.892C649.975 228.701 656.64 252.32 659.21 264.392C669.024 310.495 668.87 353.953 658.716 403.892C651.314 440.293 632.168 485.624 610.671 517.642L604.796 526.392L614.073 526.457C619.174 526.493 626.949 526.688 631.349 526.89C639.628 527.271 675.481 527.942 736.849 528.865C756.374 529.159 778.424 529.615 785.849 529.88C793.274 530.144 820.274 530.599 845.849 530.891C871.424 531.182 901.799 531.632 913.349 531.891C924.899 532.15 950.955 532.655 971.253 533.015L1008.16 533.669L1007.49 575.28C1006.44 640.712 1005.72 672.781 1005.27 674.222C1004.95 675.234 1002.64 675.473 995.599 675.222C990.511 675.04 980.499 674.8 973.349 674.687ZM954.02 663.392L954.402 659.392H948.625H942.849V662.84C942.849 666.286 942.849 666.288 948.099 666.655C950.986 666.857 953.414 667.105 953.494 667.207C953.574 667.309 953.81 665.592 954.02 663.392ZM986.566 663.559L986.783 659.654L981.316 659.528L975.849 659.401V663.226V667.05L981.099 667.257L986.349 667.464L986.566 663.559ZM919.849 662.373V658.854L914.349 658.717L908.849 658.58V662.236V665.892H914.345H919.842V662.373H919.849ZM886.849 661.642V657.892H880.85H874.85V661.642V665.392H880.85H886.85L886.849 661.642ZM821.849 660.892C821.849 657.528 821.703 657.389 818.099 657.315C816.036 657.273 813.561 657.088 812.599 656.904C811.173 656.631 810.849 657.294 810.849 660.48V664.392H816.349H821.849V660.892ZM854.423 660.892L854.494 657.395H848.667H842.843V660.895V664.395H848.593H854.343L854.414 660.898L854.423 660.892ZM753.999 660.892C755.64 655.844 755.218 655.392 748.849 655.392H742.849V658.831C742.849 662.084 743.053 662.289 746.599 662.586C752.769 663.103 753.321 662.977 753.999 660.892ZM788.849 659.892V656.392H782.849H776.849V659.892V663.392H782.849H788.849V659.892ZM721.849 658.721V655.392H716.349H710.849V658.943V662.495L716.349 662.272L721.849 662.05V658.721ZM655.845 657.642V653.892L650.432 653.862C645.066 653.832 645.015 653.862 644.64 657.068L644.263 660.305L649.807 660.66C652.856 660.855 655.463 661.1 655.601 661.204C655.738 661.308 655.85 659.705 655.849 657.643L655.845 657.642ZM688.849 658.392C688.849 656.742 688.511 655.352 688.099 655.304C687.686 655.255 685.211 655.061 682.599 654.873L677.849 654.531V657.962V661.392H683.349C688.793 661.392 688.849 661.362 688.849 658.392ZM589.26 656.142L589.939 652.392H583.894H577.849V655.84V659.288L583.099 659.59C585.986 659.756 588.4 659.892 588.465 659.892C588.525 659.892 588.887 658.205 589.26 656.142ZM621.849 656.892V653.392H615.849H609.849V656.892V660.392H615.849H621.849V656.892ZM556.849 655.981V652.57L550.847 652.231L544.844 651.892V655.642V659.392H550.844H556.844V655.981H556.849ZM489.644 654.392L489.349 650.892L483.298 650.6L477.249 650.307V653.815C477.249 657.708 477.603 657.892 485.127 657.892H489.94L489.644 654.392ZM522.849 654.892V651.392H517.349H511.849V654.892V658.392H517.349H522.849V654.892ZM424.841 655.531C424.841 654.501 423.934 654.337 421.099 654.858C415.412 655.903 414.816 657.354 420.176 657.107C423.329 656.962 424.836 656.452 424.841 655.531ZM456.849 653.892C456.849 651.795 456.348 650.365 455.599 650.324C454.911 650.287 452.436 650.174 450.098 650.074L445.847 649.892V653.642V657.392H451.347H456.847L456.849 653.892ZM364.665 636.383C415.54 631.319 467.755 611.63 509.722 581.686C525.146 570.681 530.654 566.198 542.755 554.807C550.956 547.086 564.522 532.484 572.139 523.175C588.442 503.251 611.62 462.372 618.688 441.075C620.365 436.024 622.421 430.254 623.259 428.252C625.04 423.996 631.489 399.802 633.35 390.392C637.319 370.317 638.349 357.91 638.286 330.892C638.226 306.863 637.929 301.966 635.552 286.392C634.083 276.767 632.428 267.542 631.872 265.892C631.317 264.242 629.269 256.851 627.32 249.468C625.371 242.084 623.172 234.659 622.433 232.968C621.693 231.276 619.498 225.617 617.555 220.392C612.138 205.83 594.849 171.386 591.968 169.416C591.547 169.128 590.951 168.217 590.644 167.392C589.321 163.837 569.198 137.18 560.933 128.032C548.115 113.846 533.115 100.075 518.849 89.3979C514.174 85.8989 508.774 81.8502 506.849 80.4008C490.429 68.0374 456.996 51.5032 428.79 41.7973C416.466 37.5563 412.022 36.4219 387.96 31.3715C360.875 25.6867 319.762 24.8986 288.349 29.4618C274.302 31.5024 245.159 38.4593 238.349 41.3979C237.249 41.8725 233.424 43.239 229.849 44.435C213.881 49.7768 190.472 61.0645 172.556 72.061C146.813 87.862 122.858 108.359 101.466 132.892C62.2973 177.81 36.6745 236.419 29.3305 297.892C27.4995 313.221 27.2367 346.929 28.8227 362.902C30.5397 380.187 37.3584 411.945 42.7514 427.775C56.2624 467.437 74.4241 499.504 101.559 531.607C115.699 548.336 126.141 558.2 146.349 573.916C187.634 606.026 237.555 627.272 289.662 634.91C311.319 638.084 341.602 638.679 364.665 636.383ZM313.423 622.298C296.125 621.13 277.196 617.981 260.104 613.428C244.776 609.344 225.485 602.862 218.349 599.398C216.149 598.331 210.524 595.672 205.849 593.49C188.362 585.33 166.803 571.573 149.456 557.507C140.581 550.311 124.849 535.515 124.849 534.364C124.849 534.048 128.561 530.49 133.099 526.458C137.636 522.425 144.742 515.924 148.89 512.009C153.037 508.095 158.887 502.677 161.89 499.971C164.892 497.264 170.049 492.516 173.349 489.42C182.802 480.552 246.393 421.861 257.35 411.892C262.79 406.942 267.941 402.217 268.798 401.392C273.124 397.225 293.538 378.544 296.335 376.193L299.546 373.495L307.198 377.504C311.406 379.709 314.849 381.206 314.849 380.83C314.849 380.455 315.433 380.632 316.148 381.226C317.666 382.485 323.293 383.475 330.327 383.719L335.305 383.892L336.605 389.392C340.016 403.828 348.241 440.36 350.901 452.892C352.536 460.592 354.768 470.492 355.861 474.892C357.723 482.385 363.894 509.815 369.359 534.892C370.678 540.942 372.705 549.942 373.865 554.892C375.024 559.842 376.163 564.792 376.395 565.892C377.982 573.403 385.984 608.773 386.972 612.641C387.639 615.252 387.993 617.58 387.76 617.813C386.78 618.793 364.362 621.553 350.406 622.413C333.541 623.451 330.366 623.441 313.423 622.298ZM324.455 566.142C322.872 525.685 319.853 432.658 319.85 424.25C319.85 420.146 319.318 419.018 315.27 414.516C311.79 410.645 309.477 409.062 305.636 407.922C296.05 405.075 291.117 407.98 279.568 423.268C265.69 441.64 228.308 490.104 205.162 519.733L190.976 537.892L197.043 543.353C218.125 562.328 248.036 576.18 276.849 580.31C280.974 580.902 285.474 581.551 286.849 581.753C288.224 581.955 297.39 582.181 307.219 582.256L325.09 582.392L324.455 566.142ZM400.053 614.038C399.577 613.407 397.964 606.817 396.469 599.392C394.974 591.967 392.636 581.438 391.273 575.994C389.909 570.549 387.239 558.5 385.341 549.218C383.442 539.935 381.216 529.989 380.392 527.116C379.568 524.243 377.506 515.142 375.81 506.892C374.114 498.642 372.091 489.642 371.313 486.892C370.536 484.142 368.335 474.467 366.423 465.392C364.512 456.317 362.023 445.213 360.892 440.717C359.761 436.22 357.912 427.895 356.783 422.217C355.654 416.538 353.182 405.484 351.289 397.652C349.397 389.82 347.85 382.62 347.852 381.652C347.852 380.503 349.45 379.237 352.443 378.006C358.243 375.62 367.446 367.125 371.349 360.554C374.826 354.698 373.414 354.71 390.849 360.39C397.174 362.451 407.074 365.575 412.849 367.333C418.624 369.092 425.824 371.354 428.849 372.361C431.874 373.368 439.299 375.618 445.349 377.362C451.399 379.105 457.249 380.928 458.349 381.413C459.449 381.898 465.074 383.698 470.849 385.414C476.624 387.129 487.424 390.479 494.849 392.857C502.274 395.236 514.424 399.053 521.849 401.34C539.689 406.835 563.729 414.343 582.849 420.391C591.374 423.087 600.308 425.851 602.703 426.532C606.941 427.738 609.402 430.374 607.029 431.165C606.38 431.382 605.849 432.087 605.849 432.732C605.849 434.426 599.769 449.409 594.828 459.892C586.411 477.75 573.568 497.523 556.025 519.636C551.637 525.167 526.508 550.025 519.295 555.97C512.825 561.302 496.301 573.435 491.849 576.122C468.783 590.042 451.581 598.723 436.839 603.883C432.719 605.325 428.449 606.897 427.349 607.376C424.514 608.612 413.375 612.032 406.633 613.738C402.375 614.815 400.699 614.891 400.053 614.038ZM469.349 543.333C486.064 534.386 501.581 522.296 515.191 507.613C521.357 500.961 529.747 489.528 532.556 483.952C533.958 481.169 535.873 477.767 536.812 476.392C538.593 473.784 544.157 460.342 543.643 459.887C543.481 459.744 540.199 457.978 536.349 455.964C532.499 453.949 528.224 451.664 526.849 450.885C525.474 450.106 515.124 444.669 503.849 438.803C475.428 424.016 463.185 417.583 457.349 414.368C450.591 410.646 415.931 392.724 407.842 388.769C398.633 384.268 395.896 384.036 389.621 387.229C385.501 389.326 383.881 390.895 381.999 394.612C378.047 402.416 378.116 406.608 382.355 416.392C384.38 421.067 388.192 430.067 390.827 436.392C393.461 442.717 397.738 452.842 400.331 458.892C402.924 464.942 406.827 474.365 409.006 479.831C411.185 485.297 414.032 492.047 415.332 494.831C416.631 497.615 419.251 503.717 421.154 508.392C423.057 513.067 426.623 521.617 429.079 527.392C431.534 533.167 435.244 541.977 437.322 546.971L441.1 556.049L450.224 552.368C455.243 550.343 463.849 546.277 469.349 543.333ZM112.673 521.642C111.271 520.13 107.208 515.067 103.643 510.392C80.997 480.695 64.2823 447.526 54.0073 411.892C48.5633 393.013 47.5431 387.477 43.3081 353.892C42.6571 348.734 42.6764 316.117 43.3374 310.892C43.6134 308.692 44.5391 301.267 45.3921 294.392C47.1071 280.563 51.5878 257.339 52.7798 256.097C53.5448 255.3 60.768 257.376 100.853 269.916C112.678 273.616 128.08 278.354 135.081 280.445C142.081 282.536 148.226 284.504 148.735 284.819C149.453 285.263 172.426 292.446 180.853 294.861C181.678 295.098 188.203 297.136 195.353 299.39C202.503 301.643 215.103 305.519 223.353 308.001C231.603 310.483 241.278 313.56 244.853 314.836C248.428 316.113 254.953 318.151 259.353 319.365C263.753 320.578 270.615 322.715 274.603 324.112L281.853 326.651V334.916C281.853 344.366 284.372 353.93 288.439 359.924L291.036 363.752L286.152 368.322C283.465 370.835 278.586 375.324 275.31 378.297C266.67 386.137 247.575 403.775 238.87 411.958C226.807 423.298 179.884 466.547 160.853 483.869C141.25 501.71 135.711 506.829 124.777 517.204C120.61 521.157 116.756 524.392 116.213 524.392C115.67 524.392 114.079 523.155 112.677 521.642H112.673ZM121.339 450.055C124.094 448.22 131.524 443.423 137.849 439.396C144.174 435.37 152.274 430.191 155.849 427.889C162.468 423.626 168.018 420.09 190.366 405.892C197.291 401.492 209.235 393.842 216.907 388.892C224.578 383.942 235.757 376.808 241.749 373.039L252.643 366.186L254.246 360.474C255.127 357.332 255.849 353.313 255.849 351.544C255.849 343.115 249.017 336.16 239.646 335.052C206.383 331.117 190.931 329.23 188.849 328.851C187.474 328.6 179.149 327.505 170.349 326.418C161.549 325.331 143.099 323.015 129.349 321.27C80.6161 315.088 85.7725 315.462 84.7895 318.046C82.2755 324.659 80.6081 343.306 81.1821 358.392C82.1051 382.654 86.6217 400.476 97.7827 423.892C103.417 435.711 114.076 453.392 115.567 453.392C115.988 453.392 118.584 451.891 121.339 450.055ZM600.849 413.351C596.174 411.805 584.924 408.219 575.849 405.381C566.774 402.543 558.224 399.846 556.849 399.388C555.474 398.929 548.949 396.897 542.349 394.871C535.749 392.845 524.949 389.48 518.349 387.393C511.749 385.305 502.974 382.622 498.849 381.429C494.724 380.237 487.524 377.958 482.849 376.366C478.174 374.773 470.299 372.302 465.349 370.873C460.399 369.445 455.449 367.879 454.349 367.393C453.249 366.906 448.299 365.32 443.349 363.866C438.399 362.413 428.949 359.5 422.349 357.393C415.749 355.287 403.149 351.297 394.349 348.526L378.349 343.489L378.279 333.69C378.199 323.481 375.829 314.236 372.273 310.307C371.378 309.317 370.804 308.111 370.998 307.627C371.354 306.737 379.779 298.806 398.867 281.392C413.701 267.858 460.907 224.289 476.851 209.416C484.276 202.49 495.976 191.704 502.851 185.448C521.591 168.393 536.419 154.685 544.298 147.132L551.351 140.372L555.744 145.132C560.491 150.275 573.851 167.858 573.851 168.963C573.851 169.334 575.814 172.395 578.214 175.765C584.126 184.065 599.213 213.237 602.918 223.535C604.573 228.131 607.022 234.592 608.361 237.892C611.514 245.666 618.201 272.101 620.25 284.892C626.297 322.631 624.428 371.877 615.83 401.392C614.788 404.967 613.45 409.805 612.855 412.142C612.26 414.48 611.228 416.34 610.562 416.276C609.896 416.212 605.526 414.896 600.851 413.351H600.849ZM577.829 349.075C581.62 331.495 581.679 302.747 577.959 286.392C573.704 267.688 565.092 246.007 555.912 230.892C549.414 220.193 547.439 217.406 546.349 217.399C545.356 217.389 531.336 226.028 508.849 240.496C481.336 258.197 461.628 270.769 446.849 280.048C441.074 283.673 434.099 288.106 431.349 289.897C428.599 291.689 422.426 295.688 417.633 298.785C409.372 304.121 408.838 304.684 407.383 309.585C405.32 316.532 405.451 320.939 407.865 325.926C410.885 332.165 416.635 334.831 430.349 336.349C436.399 337.018 442.699 337.745 444.349 337.963C445.999 338.182 455.674 339.267 465.849 340.374C481.955 342.127 488.088 342.946 499.849 344.913C501.224 345.143 510.224 346.228 519.849 347.324C553.092 351.109 572.212 353.422 572.48 353.69C572.628 353.838 573.64 354.026 574.73 354.108C576.343 354.23 576.92 353.292 577.829 349.075ZM329.599 371.73C330.286 371.453 331.411 371.453 332.099 371.73C332.786 372.007 332.224 372.234 330.849 372.234C329.474 372.234 328.911 372.007 329.599 371.73ZM320.849 370.392C320.849 369.842 321.272 369.392 321.79 369.392C322.307 369.392 323.009 369.842 323.349 370.392C323.689 370.942 323.269 371.392 322.408 371.392C321.55 371.392 320.849 370.942 320.849 370.392ZM336.649 370.192C337.582 369.259 338.114 369.259 339.048 370.192C339.981 371.125 339.715 371.392 337.849 371.392C335.982 371.392 335.715 371.125 336.649 370.192ZM340.849 369.392C340.849 368.842 341.299 368.392 341.849 368.392C342.399 368.392 342.849 368.842 342.849 369.392C342.849 369.942 342.399 370.392 341.849 370.392C341.299 370.392 340.849 369.942 340.849 369.392ZM343.849 368.591C343.849 368.151 345.986 366.785 348.599 365.556C352.964 363.502 353.146 363.484 350.849 365.334C349.474 366.442 347.786 367.358 347.099 367.37C346.411 367.382 345.849 367.842 345.849 368.392C345.849 368.942 345.399 369.392 344.849 369.392C344.299 369.392 343.849 369.032 343.849 368.591ZM310.29 365.837C308.459 364.371 308.491 364.349 310.849 365.472C313.91 366.93 314.477 367.392 313.206 367.392C312.67 367.392 311.357 366.692 310.29 365.837ZM303.286 360.263C300.837 357.654 300.719 357.324 302.576 358.285C303.801 358.919 305.279 360.328 305.861 361.415C307.341 364.18 306.688 363.888 303.286 360.263ZM355.081 361.392C355.768 360.292 356.741 359.392 357.244 359.392C357.747 359.392 357.344 360.292 356.349 361.392C355.353 362.492 354.38 363.392 354.185 363.392C353.991 363.392 354.394 362.492 355.081 361.392ZM299.349 355.392C299.009 354.842 299.207 354.392 299.79 354.392C300.372 354.392 300.849 354.842 300.849 355.392C300.849 355.942 300.65 356.392 300.408 356.392C300.165 356.392 299.689 355.942 299.349 355.392ZM362.051 351.437C362.723 350.362 363.412 349.623 363.583 349.794C364.176 350.387 362.631 353.392 361.733 353.392C361.237 353.392 361.38 352.512 362.051 351.437ZM293.294 340.305C292.924 339.707 293.124 338.717 293.736 338.105C294.553 337.288 294.849 337.576 294.849 339.192C294.849 341.606 294.328 341.979 293.294 340.305ZM365.849 334.785C365.849 331.635 366.167 329.378 366.557 329.768C367.63 330.841 367.797 339.305 366.757 339.948C366.251 340.26 365.849 337.968 365.849 334.785ZM293.454 331.806C293.119 330.934 293.282 329.471 293.817 328.556C294.589 327.232 294.794 327.557 294.818 330.142C294.848 333.701 294.395 334.258 293.454 331.806ZM363.927 322.724C363.887 322.082 363.59 320.732 363.273 319.724C362.726 317.983 362.753 317.98 363.843 319.68C364.473 320.663 364.769 322.013 364.498 322.68C364.143 323.555 363.984 323.567 363.927 322.724ZM276.849 311.895C272.724 310.596 263.274 307.674 255.849 305.4C248.424 303.127 241.674 300.996 240.849 300.665C240.024 300.335 239.124 300.001 238.849 299.924C235.167 298.89 217.991 293.533 209.849 290.88C204.074 288.998 195.299 286.309 190.349 284.904C185.399 283.5 180.449 281.922 179.349 281.398C178.249 280.874 171.949 278.836 165.349 276.869C158.749 274.902 149.299 272.01 144.349 270.443C139.399 268.876 128.149 265.332 119.349 262.568C98.2571 255.944 71.9551 247.691 63.8491 245.152C60.2741 244.033 57.2361 243.029 57.0981 242.921C56.7361 242.637 60.7186 230.431 62.3276 226.892C63.0786 225.242 64.6527 221.417 65.8257 218.392C71.6537 203.371 88.0132 174.559 98.4302 160.971C101.685 156.724 105.024 152.251 105.849 151.03C107.406 148.724 110.514 145.151 119.849 134.929C125.533 128.705 126.907 127.336 135.349 119.489C148.844 106.945 167.095 93.0106 180.962 84.664C193.242 77.2724 211.333 67.9199 218.349 65.3359C221.649 64.1204 224.799 62.7799 225.349 62.3569C226.85 61.2022 256.83 51.392 258.857 51.392C259.865 51.392 260.83 52.3523 261.118 53.642C261.394 54.8795 263.721 65.342 266.291 76.892C268.86 88.442 271.658 100.592 272.507 103.892C273.357 107.192 275.54 116.867 277.357 125.392C280.729 141.21 285.972 164.579 290.37 183.392C291.72 189.167 294.43 201.092 296.391 209.892C304.706 247.208 308.833 265.575 311.324 276.36C314.363 289.511 314.939 288.055 304.477 293.657C298.892 296.647 290.281 305.728 286.948 312.142C285.556 314.82 286.188 314.835 276.849 311.895ZM268.875 273.378C271.578 271.999 273.757 269.73 275.781 266.187C280.419 258.066 280.53 255.058 276.531 245.821C270.012 230.759 261.849 211.375 261.849 210.955C261.849 210.723 258.428 202.514 254.249 192.713C243.337 167.127 233.2 142.901 221.582 114.651C216.73 102.852 218.696 103.325 202.849 110.143C182.363 118.958 166.344 129.935 149.223 146.892C139.352 156.669 134.418 162.495 129.325 170.392C123.326 179.692 113.091 200.035 114.005 200.843C114.333 201.133 131.859 210.211 162.849 226.142C170.824 230.242 180.049 235.075 183.349 236.882C186.649 238.689 194.074 242.625 199.849 245.63C205.624 248.634 220.024 256.178 231.849 262.393C243.674 268.609 254.474 274.037 255.849 274.457C260.295 275.814 264.838 275.437 268.875 273.378ZM358.349 313.392C358.009 312.842 358.181 312.392 358.731 312.392C359.281 312.392 360.009 312.842 360.349 313.392C360.689 313.942 360.516 314.392 359.966 314.392C359.416 314.392 358.689 313.942 358.349 313.392ZM350.576 305.392C349.177 304.292 347.542 303.392 346.941 303.392C346.34 303.392 345.849 302.942 345.849 302.392C345.849 300.877 346.506 301.132 351.006 304.392C353.284 306.042 354.691 307.392 354.133 307.392C353.574 307.392 351.974 306.492 350.576 305.392ZM308.582 305.268C309.26 304.585 310.066 304.277 310.374 304.585C310.682 304.893 310.128 305.452 309.142 305.828C307.717 306.37 307.602 306.256 308.582 305.268ZM312.349 302.392C312.689 301.842 313.165 301.392 313.408 301.392C313.65 301.392 313.849 301.842 313.849 302.392C313.849 302.942 313.372 303.392 312.79 303.392C312.207 303.392 312.009 302.942 312.349 302.392ZM317.849 300.392C317.849 299.842 318.299 299.392 318.849 299.392C319.399 299.392 319.849 299.842 319.849 300.392C319.849 300.942 319.399 301.392 318.849 301.392C318.299 301.392 317.849 300.942 317.849 300.392ZM321.599 298.73C322.286 298.453 323.411 298.453 324.099 298.73C324.786 299.007 324.224 299.234 322.849 299.234C321.474 299.234 320.911 299.007 321.599 298.73ZM335.599 298.73C336.286 298.453 337.411 298.453 338.099 298.73C338.786 299.007 338.224 299.234 336.849 299.234C335.474 299.234 334.911 299.007 335.599 298.73ZM355.332 293.477C347.597 288.622 343.084 287.144 333.901 286.453L326.453 285.892L324.162 276.392C322.902 271.167 320.024 258.567 317.766 248.392C315.508 238.217 313.035 227.192 312.27 223.892C311.506 220.592 309.915 213.392 308.736 207.892C306.335 196.698 305.272 191.979 301.421 175.392C299.953 169.067 297.844 159.617 296.733 154.392C295.623 149.167 294.545 144.217 294.341 143.392C293.56 140.245 280.536 82.1817 277.295 67.392C275.426 58.867 273.627 50.9509 273.297 49.8007C272.735 47.8412 273.378 47.5981 283.523 45.9364C289.477 44.961 295.474 43.9598 296.849 43.7113C305.357 42.174 319.207 41.5641 339.349 41.8407C363.635 42.1742 376.38 43.8104 402.849 49.9921C440.534 58.7935 481.307 78.6277 513.236 103.69C522.177 110.707 542.667 129.701 542.765 131.06C542.815 131.703 533.286 140.916 521.599 151.533C509.911 162.151 497.199 173.818 493.349 177.461C489.499 181.104 479.799 190.116 471.795 197.488C463.791 204.86 445.783 221.467 431.775 234.392C417.767 247.317 401.59 262.145 395.827 267.343C390.064 272.542 382.874 279.136 379.849 281.998C367.72 293.472 363.303 297.333 362.349 297.293C361.799 297.27 358.641 295.553 355.332 293.477ZM369.999 257.392C372.389 256.282 378.327 248.744 400.144 219.12C403.881 214.045 408.475 207.867 410.352 205.392C412.229 202.917 420.602 191.667 428.961 180.392C437.32 169.117 449.544 152.692 456.126 143.892C462.709 135.092 468.302 127.356 468.556 126.702C469.045 125.438 454.379 114.251 444.349 108.236C421.551 94.5653 393.62 85.6835 367.849 83.9101C359.828 83.3581 335.828 85.0289 334.624 86.2231C333.983 86.8581 335.922 132.19 337.326 149.392C338.058 158.364 340.6 207.362 341.374 227.392C341.725 236.467 342.478 245.467 343.05 247.392C344.299 251.601 348.249 256.122 352.349 258.038C355.831 259.665 365.898 259.297 369.999 257.392ZM988.849 544.892V541.392H983.349C978.593 541.392 977.849 541.652 977.849 543.31C977.849 544.365 977.575 545.94 977.242 546.81C976.729 548.146 977.584 548.392 982.742 548.392H988.849V544.892ZM922.423 543.933L922.494 540.392H916.667H910.843V543.728V547.064L916.593 547.268L922.343 547.473L922.414 543.933H922.423ZM956.063 544.386C956.305 542.733 956.281 541.158 956.013 540.886C955.741 540.614 953.118 540.392 950.185 540.392H944.852V543.892V547.392H950.238C955.461 547.392 955.638 547.301 956.066 544.386H956.063ZM888.849 542.892V539.392H883.349C878.593 539.392 877.849 539.652 877.849 541.31C877.849 542.365 877.575 543.94 877.242 544.81C876.729 546.146 877.584 546.392 882.742 546.392H888.849V542.892ZM823.849 540.987V537.701L818.349 537.521L812.849 537.341V540.812C812.849 544.243 812.899 544.286 817.599 544.588C823.698 544.98 823.849 544.893 823.849 540.987ZM856.849 542.017V538.642H851.349C847.949 538.642 845.842 539.072 845.834 539.767C845.824 540.386 845.549 541.905 845.217 543.142C844.64 545.296 844.877 545.392 850.732 545.392H856.849V542.017ZM755.849 540.392V536.392H750.349H744.849V539.831C744.849 543.516 744.37 543.29 754.099 544.224C755.502 544.359 755.849 543.599 755.849 540.392ZM790.849 540.892V537.392H785.349C782.324 537.392 779.812 537.73 779.766 538.142C779.716 538.555 779.481 540.13 779.232 541.642C778.781 544.388 778.789 544.392 784.814 544.392H790.849V540.892ZM723.849 539.892V536.392H718.349H712.849V539.892V543.392H718.349H723.849V539.892ZM623.849 537.833V534.392H617.849H611.849V537.84V541.288L617.099 541.59C619.986 541.756 622.686 541.753 623.099 541.58C623.511 541.41 623.849 539.722 623.849 537.83V537.833ZM657.849 538.892V535.392H652.349H646.849V538.892V542.392H652.349H657.849V538.892ZM691.849 538.892V535.392H685.849H679.849V538.892V542.392H685.849H691.849V538.892ZM696.89 471.142C696.91 470.455 713.925 385.742 734.693 282.892L772.453 95.892L881.401 95.6181C1002.47 95.3134 997.472 95.0693 1011.91 101.988C1034.37 112.754 1052.34 133.73 1060.81 159.088C1069.74 185.831 1068.44 217.085 1057.4 240.979C1047.77 261.819 1030.23 279.356 1007.22 291.134C985.281 302.367 962.829 307.94 934.132 309.276L920.917 309.892L975.382 390.633C1005.34 435.041 1029.85 471.603 1029.85 471.883C1029.85 472.163 1011.29 472.383 988.599 472.371L947.349 472.35L889.422 384.655L831.497 296.959L833.205 290.425C834.144 286.832 836.977 276.163 839.5 266.716L844.088 249.541L898.718 249.189C952.859 248.841 953.407 248.817 959.849 246.522C981.933 238.652 996.356 216.103 994.522 192.314C993.521 179.331 988.064 167.536 980.595 162.208L977.349 159.892H903.877H830.407L817.674 222.892C810.671 257.542 796.484 327.853 786.146 379.14L767.349 472.387H732.099C704.542 472.387 696.858 472.117 696.89 471.14V471.142ZM1092.85 471.634C1092.85 470.21 1167.81 96.0975 1168.17 95.7406C1168.36 95.5448 1226.78 95.4986 1297.99 95.6381L1427.46 95.892L1421.33 125.171C1417.95 141.274 1414.76 154.884 1414.23 155.415C1413.62 156.02 1378.25 156.477 1319.82 156.637L1226.38 156.892L1217.65 199.892C1212.85 223.542 1208.9 243.455 1208.88 244.142C1208.85 245.133 1227.81 245.392 1300.42 245.392C1387.15 245.392 1391.96 245.484 1391.48 247.142C1391.2 248.105 1388.67 260.142 1385.86 273.892C1383.05 287.642 1380.33 299.905 1379.82 301.142L1378.89 303.392H1287.87C1237.81 303.392 1196.85 303.554 1196.85 303.753C1196.85 303.951 1193.03 324.089 1188.35 348.503C1183.68 372.917 1179.86 394.479 1179.85 396.419C1179.84 400.94 1181.93 403.857 1187.16 406.655L1191.35 408.892L1277.45 409.179L1363.55 409.465L1357.72 438.679C1354.51 454.746 1351.64 468.905 1351.35 470.142L1350.81 472.392H1221.83C1150.89 472.392 1092.85 472.051 1092.85 471.634ZM1424.85 471.634C1424.85 470.21 1499.81 96.0975 1500.17 95.7406C1500.36 95.5448 1558.78 95.4986 1629.98 95.6381L1759.44 95.892L1753.29 125.196C1749.91 141.314 1746.72 154.923 1746.2 155.441C1745.63 156.011 1708.48 156.482 1651.8 156.637L1558.35 156.892L1549.64 199.892C1544.84 223.542 1540.91 243.455 1540.89 244.142C1540.86 245.133 1559.81 245.392 1632.42 245.392C1719.15 245.392 1723.96 245.484 1723.48 247.142C1723.2 248.105 1720.67 260.142 1717.85 273.892C1715.04 287.642 1712.32 299.905 1711.81 301.142L1710.89 303.392H1619.87C1569.81 303.392 1528.85 303.569 1528.85 303.786C1528.85 304.002 1525.02 324.127 1520.35 348.509C1515.67 372.891 1511.85 394.439 1511.85 396.393C1511.85 400.942 1513.92 403.854 1519.16 406.655L1523.35 408.892L1609.45 409.179L1695.55 409.465L1689.72 438.679C1686.51 454.746 1683.64 468.905 1683.35 470.142L1682.81 472.392H1553.83C1482.89 472.392 1424.85 472.051 1424.85 471.634ZM1755.89 472.146C1755.91 472.006 1773.15 387.292 1794.19 283.892L1832.44 95.892L1867.65 95.6293C1887.53 95.4809 1902.85 95.7508 1902.85 96.2494C1902.85 96.7349 1890.43 157.828 1875.26 232.012C1860.08 306.196 1847.43 369.377 1847.14 372.414C1846.04 383.932 1851.16 396.374 1858.85 400.853C1862.25 402.833 1864.06 402.9 1921.11 403.18L1979.87 403.468L1979.31 405.68C1979.01 406.896 1975.5 422.292 1971.51 439.892L1964.26 471.892L1860.05 472.146C1802.74 472.287 1755.87 472.287 1755.89 472.146ZM2001.85 471.366C2001.85 470.802 2005.22 455.513 2009.35 437.392C2013.47 419.271 2016.85 404.207 2016.85 403.918C2016.85 403.629 2057.01 403.383 2106.1 403.372C2159.14 403.36 2198.19 402.953 2202.35 402.368C2221.14 399.724 2238.13 383.937 2245.44 362.304C2248.44 353.441 2249.96 339.839 2248.78 332.458C2247.03 321.543 2237.55 312.225 2226.3 310.372C2222.96 309.823 2198.4 309.401 2170.35 309.413C2114.46 309.435 2114.64 309.454 2100.3 302.433C2080.96 292.97 2063.77 270.188 2057.64 245.892C2054.42 233.114 2054.43 204.818 2057.67 189.704C2063.27 163.6 2074.95 140.935 2091.69 123.688C2103.64 111.384 2116.04 103.43 2131.34 98.2577L2138.34 95.892L2241.09 95.6152C2323.93 95.3919 2343.84 95.5852 2343.84 96.6152C2343.84 97.3176 2340.47 112.732 2336.34 130.871C2332.22 149.009 2328.84 163.954 2328.84 164.082C2328.84 164.211 2291.83 164.445 2246.59 164.604L2164.34 164.892L2158.34 167.297C2149.81 170.718 2139.39 181.276 2134.57 191.392C2128.82 203.445 2126.37 219.528 2128.89 228.617C2130.44 234.184 2135.74 240.462 2141.32 243.337L2146.29 245.892L2202.31 246.421L2258.34 246.95L2267.84 250.147C2292.37 258.401 2311.07 276.303 2318.89 299.017C2322.15 308.493 2323.09 320.31 2321.87 336.491C2318.51 381.292 2302.96 417.548 2275.39 444.892C2263.73 456.455 2255.86 461.863 2243.49 466.803C2229.21 472.506 2232.73 472.356 2112.59 472.374C2037.55 472.386 2001.84 472.061 2001.84 471.366H2001.85Z" fill="white"/>
</svg>
